<svg width="109" height="41" viewBox="0 0 109 41" fill="none" xmlns="http://www.w3.org/2000/svg">
<path d="M103.769 29.3598C103.769 28.2665 103.689 27.1465 103.529 25.9998C103.369 24.8532 103.062 23.7865 102.609 22.7998C102.155 21.8132 101.502 21.0265 100.649 20.4398C99.8221 19.8265 98.7154 19.5198 97.3287 19.5198C96.0487 19.5198 94.9954 19.8398 94.1687 20.4798C93.3687 21.1198 92.7554 21.9598 92.3287 22.9998C91.9021 24.0132 91.5954 25.0932 91.4087 26.2398C91.2487 27.3598 91.1687 28.4265 91.1687 29.4398C91.1687 30.5598 91.2487 31.6798 91.4087 32.7998C91.5954 33.8932 91.9154 34.9065 92.3687 35.8398C92.822 36.7732 93.4754 37.5198 94.3287 38.0798C95.1821 38.6398 96.2887 38.9198 97.6487 38.9198C98.9821 38.9198 100.049 38.6265 100.849 38.0398C101.675 37.4532 102.289 36.6798 102.689 35.7198C103.115 34.7598 103.395 33.7198 103.529 32.5998C103.689 31.4798 103.769 30.3998 103.769 29.3598ZM108.329 29.5198C108.329 31.5465 107.835 33.3598 106.849 34.9598C105.889 36.5598 104.582 37.8265 102.929 38.7598C101.302 39.6665 99.4754 40.1198 97.4487 40.1198C95.4487 40.1198 93.6487 39.6665 92.0487 38.7598C90.4487 37.8265 89.1687 36.5598 88.2087 34.9598C87.2754 33.3598 86.8087 31.5732 86.8087 29.5998C86.8087 27.5465 87.2754 25.6665 88.2087 23.9598C89.1421 22.2532 90.422 20.8932 92.0487 19.8798C93.6754 18.8398 95.5287 18.3198 97.6087 18.3198C99.9021 18.3198 101.835 18.7865 103.409 19.7198C105.009 20.6532 106.222 21.9598 107.049 23.6398C107.902 25.3198 108.329 27.2798 108.329 29.5198Z" fill="#0F172A"/>
<path d="M82.1806 39.4001C82.1806 39.5601 82.1006 39.7068 81.9406 39.8401C81.8072 39.9735 81.6606 40.0401 81.5006 40.0401C80.6739 40.0401 79.8339 40.0268 78.9806 40.0001C78.1272 39.9468 77.2739 39.9201 76.4206 39.9201C75.9139 39.9201 75.4072 39.9201 74.9006 39.9201C74.4206 39.9201 73.9273 39.9335 73.4206 39.9601C73.1273 39.9868 72.8339 40.0001 72.5406 40.0001C72.2472 40.0268 71.9539 40.0401 71.6606 40.0401C71.5006 40.0401 71.3672 39.9601 71.2606 39.8001C71.1806 39.6401 71.1406 39.4935 71.1406 39.3601C71.1406 39.0935 71.2872 38.9201 71.5806 38.8401C71.8206 38.7868 72.0739 38.7735 72.3406 38.8001C72.6339 38.8268 72.9139 38.8401 73.1806 38.8401C73.5006 38.8401 73.7806 38.7601 74.0206 38.6001C74.2873 38.4134 74.4206 38.1468 74.4206 37.8001C74.4206 35.7468 74.4339 33.6801 74.4606 31.6001C74.4873 29.5201 74.5006 27.4535 74.5006 25.4001C74.5006 23.3201 74.4873 21.2401 74.4606 19.1601C74.4339 17.0801 74.4206 15.0001 74.4206 12.9201C74.4206 12.6268 74.3672 12.3468 74.2606 12.0801C74.1806 11.7868 73.9539 11.6401 73.5806 11.6401C73.1272 11.6401 72.6739 11.7068 72.2206 11.8401C71.7672 11.9734 71.3006 12.0401 70.8206 12.0401C70.7406 12.0401 70.6206 12.0134 70.4606 11.9601C70.3006 11.9068 70.2206 11.8268 70.2206 11.7201C70.2206 11.3735 70.3406 11.1601 70.5806 11.0801C70.9006 10.9468 71.2339 10.8668 71.5806 10.8401C71.9272 10.7868 72.2472 10.7201 72.5406 10.6401C73.3939 10.4268 74.2339 10.2001 75.0606 9.96012C75.9139 9.72012 76.7539 9.46678 77.5806 9.20012C77.6606 9.17345 77.7273 9.16012 77.7806 9.16012C77.8606 9.13345 77.9406 9.12012 78.0206 9.12012C78.3939 9.12012 78.5806 9.32012 78.5806 9.72012C78.5806 10.4668 78.5806 11.2268 78.5806 12.0001C78.5806 12.7468 78.5806 13.5068 78.5806 14.2801V25.0001C78.5806 27.1068 78.5806 29.2401 78.5806 31.4001C78.6072 33.5335 78.6206 35.6668 78.6206 37.8001C78.6206 38.1468 78.7806 38.4134 79.1006 38.6001C79.4206 38.7601 79.7273 38.8401 80.0206 38.8401C80.3139 38.8401 80.5939 38.8268 80.8606 38.8001C81.1539 38.7735 81.4339 38.7601 81.7006 38.7601C81.8073 38.7601 81.9139 38.8401 82.0206 39.0001C82.1273 39.1601 82.1806 39.2935 82.1806 39.4001Z" fill="#0F172A"/>
<path d="M66.5106 39.3999C66.5106 39.5599 66.4306 39.7066 66.2706 39.8399C66.1372 39.9732 65.9906 40.0399 65.8306 40.0399C64.8972 40.0399 63.9639 40.0266 63.0306 39.9999C62.0972 39.9466 61.1639 39.9199 60.2306 39.9199C59.4572 39.9199 58.6706 39.9466 57.8706 39.9999C57.0972 40.0266 56.3239 40.0399 55.5506 40.0399C55.4172 40.0399 55.2972 39.9732 55.1906 39.8399C55.0839 39.6799 55.0306 39.5465 55.0306 39.4399C55.0306 39.1199 55.1772 38.9465 55.4706 38.9199C55.7906 38.8665 56.1239 38.8532 56.4706 38.8799C56.8439 38.9066 57.1906 38.9199 57.5106 38.9199C57.8572 38.9199 58.1506 38.8399 58.3906 38.6799C58.6306 38.4932 58.7506 38.2266 58.7506 37.8799V32.6799L58.7906 21.7199C58.7906 21.3465 58.7239 21.0399 58.5906 20.7999C58.4839 20.5332 58.2039 20.3999 57.7506 20.3999C57.4039 20.3999 57.0439 20.4266 56.6706 20.4799C56.3239 20.5332 55.9639 20.5599 55.5906 20.5599C55.4839 20.5599 55.3506 20.5332 55.1906 20.4799C55.0306 20.3999 54.9506 20.2932 54.9506 20.1599C54.9506 19.8132 55.0839 19.6132 55.3506 19.5599C55.6972 19.4532 56.0439 19.3865 56.3906 19.3599C56.7372 19.3065 57.0839 19.2532 57.4306 19.1999C58.1772 19.0665 58.9106 18.9199 59.6306 18.7599C60.3772 18.5732 61.1239 18.3999 61.8706 18.2399C62.0306 18.1865 62.1772 18.1599 62.3106 18.1599C62.7906 18.1599 63.0306 18.3599 63.0306 18.7599C63.0306 21.9332 63.0172 25.1199 62.9906 28.3199C62.9639 31.4932 62.9506 34.6799 62.9506 37.8799C62.9506 38.3599 63.1772 38.6532 63.6306 38.7599C64.0839 38.8399 64.4839 38.8799 64.8306 38.8799C65.0439 38.8799 65.2439 38.8799 65.4306 38.8799C65.6439 38.8532 65.8439 38.8399 66.0306 38.8399C66.1372 38.8399 66.2439 38.9066 66.3506 39.0399C66.4572 39.1732 66.5106 39.2932 66.5106 39.3999Z" fill="#0F172A"/>
<path d="M51.4408 39.52C51.4408 39.7067 51.3342 39.84 51.1208 39.92C50.9342 39.9734 50.7742 40 50.6408 40C49.9742 40 49.2942 39.9867 48.6008 39.96C47.9075 39.9334 47.2142 39.92 46.5208 39.92C45.7475 39.92 44.9608 39.9467 44.1608 40C43.3875 40.0267 42.6142 40.04 41.8408 40.04C41.7342 40.04 41.6142 39.9867 41.4808 39.88C41.3742 39.7734 41.3208 39.6667 41.3208 39.56C41.3208 39.4267 41.3475 39.2934 41.4008 39.16C41.4808 39 41.6142 38.92 41.8008 38.92C42.0942 38.92 42.3742 38.9334 42.6408 38.96C42.9342 38.96 43.2142 38.96 43.4808 38.96C43.7742 38.96 43.9875 38.8534 44.1208 38.64C44.2808 38.4 44.3742 38.1467 44.4008 37.88C44.4542 36.9467 44.4808 36.0134 44.4808 35.08C44.4808 34.12 44.4808 33.1867 44.4808 32.28C44.4808 31.7467 44.4808 31.0134 44.4808 30.08C44.5075 29.12 44.5075 28.1067 44.4808 27.04C44.4808 25.9734 44.4408 25 44.3608 24.12C44.3075 23.2134 44.2008 22.5467 44.0408 22.12C43.8275 21.48 43.4275 20.96 42.8408 20.56C42.2542 20.1334 41.6142 19.92 40.9208 19.92C40.0408 19.92 39.1875 20.1734 38.3608 20.68C37.5342 21.16 36.8408 21.7334 36.2808 22.4C35.6142 23.1467 35.1342 23.7867 34.8408 24.32C34.5742 24.8534 34.4142 25.4267 34.3608 26.04C34.3075 26.6267 34.2808 27.4134 34.2808 28.4C34.2542 29.6267 34.2408 30.8534 34.2408 32.08C34.2408 33.28 34.2408 34.4934 34.2408 35.72C34.2408 36.0667 34.2408 36.4267 34.2408 36.8C34.2408 37.1467 34.2542 37.5067 34.2808 37.88C34.3075 38.0934 34.3608 38.3334 34.4408 38.6C34.5475 38.84 34.7342 38.96 35.0008 38.96H35.1608C35.4008 38.96 35.6408 38.9467 35.8808 38.92C36.1208 38.8934 36.3608 38.88 36.6008 38.88C37.0275 38.88 37.2408 39.1067 37.2408 39.56C37.2408 39.6934 37.1608 39.8 37.0008 39.88C36.8675 39.96 36.7342 40 36.6008 40C35.6942 40 34.8008 39.9867 33.9208 39.96C33.0408 39.9334 32.1608 39.92 31.2808 39.92C30.8275 39.92 30.3608 39.92 29.8808 39.92C29.4008 39.8934 28.9342 39.9067 28.4808 39.96C28.3742 39.9867 28.2675 40 28.1608 40C28.0542 40.0267 27.9342 40.04 27.8008 40.04C27.6142 40.04 27.4675 39.9734 27.3608 39.84C27.2542 39.7067 27.2008 39.5467 27.2008 39.36C27.2008 39.2 27.2675 39.08 27.4008 39C27.5608 38.8934 27.7075 38.84 27.8408 38.84C28.0275 38.84 28.2142 38.8534 28.4008 38.88C28.5875 38.88 28.7742 38.88 28.9608 38.88C29.3342 38.88 29.6675 38.8267 29.9608 38.72C30.2808 38.5867 30.4542 38.3067 30.4808 37.88C30.5342 37.0267 30.5475 36.16 30.5208 35.28C30.5208 34.4 30.5208 33.5467 30.5208 32.72C30.5208 31.04 30.5208 29.36 30.5208 27.68C30.5208 26 30.5208 24.3334 30.5208 22.68C30.5208 21 30.5075 19.32 30.4808 17.64C30.4808 15.96 30.4675 14.28 30.4408 12.6C30.4408 12.36 30.4142 12.0667 30.3608 11.72C30.3342 11.3734 30.1475 11.2 29.8008 11.2C29.4275 11.2 29.0408 11.2267 28.6408 11.28C28.2408 11.3334 27.8542 11.36 27.4808 11.36C27.3475 11.36 27.2008 11.3334 27.0408 11.28C26.9075 11.2267 26.8408 11.12 26.8408 10.96C26.8408 10.6667 26.9875 10.48 27.2808 10.4C27.8942 10.24 28.4942 10.12 29.0808 10.04C29.6942 9.93337 30.2942 9.81337 30.8808 9.68004C31.3342 9.54671 31.8142 9.41337 32.3208 9.28004C32.8275 9.12004 33.2942 9.04004 33.7208 9.04004C34.1208 9.04004 34.3208 9.21337 34.3208 9.56004C34.3208 11.64 34.3208 13.72 34.3208 15.8C34.3208 17.8534 34.3075 19.9067 34.2808 21.96C34.8675 21.3734 35.5608 20.8134 36.3608 20.28C37.1875 19.7467 38.0542 19.3067 38.9608 18.96C39.8675 18.5867 40.7342 18.4 41.5608 18.4C44.2008 18.4 46.0275 18.9734 47.0408 20.12C48.0542 21.24 48.5608 23.0934 48.5608 25.68C48.5608 27.7067 48.5475 29.7334 48.5208 31.76C48.4942 33.7867 48.4808 35.8267 48.4808 37.88C48.4808 38.6 48.8542 38.96 49.6008 38.96C49.8142 38.96 50.0275 38.9467 50.2408 38.92C50.4542 38.8934 50.6542 38.88 50.8408 38.88C51.0008 38.88 51.1342 38.9467 51.2408 39.08C51.3742 39.2134 51.4408 39.36 51.4408 39.52Z" fill="#0F172A"/>
<path d="M18.84 17.8801C18.84 15.8268 18.2667 14.3201 17.12 13.3601C15.9733 12.3734 14.4267 11.8801 12.48 11.8801C11.92 11.8801 11.36 11.8934 10.8 11.9201C10.2667 11.9201 9.73333 11.9201 9.2 11.9201C8.98667 11.9201 8.77333 12.0134 8.56 12.2001C8.34667 12.3601 8.24 12.5468 8.24 12.7601V24.0001C8.77333 24.4001 9.44 24.6401 10.24 24.7201C11.04 24.8001 11.76 24.8401 12.4 24.8401C14.64 24.8401 16.2667 24.2268 17.28 23.0001C18.32 21.7468 18.84 20.0401 18.84 17.8801ZM23.68 17.7601C23.68 19.5201 23.36 20.9601 22.72 22.0801C22.08 23.1734 21.2133 24.0268 20.12 24.6401C19.0533 25.2268 17.84 25.6401 16.48 25.8801C15.12 26.1201 13.7067 26.2401 12.24 26.2401C11.5733 26.2401 10.9067 26.2001 10.24 26.1201C9.6 26.0401 8.94667 25.9601 8.28 25.8801C8.28 27.8534 8.28 29.8268 8.28 31.8001C8.28 33.7734 8.28 35.7468 8.28 37.7201C8.28 38.1201 8.42667 38.3868 8.72 38.5201C9.04 38.6268 9.36 38.6801 9.68 38.6801C10.0533 38.6801 10.4133 38.6668 10.76 38.6401C11.1067 38.6134 11.4533 38.6001 11.8 38.6001C12.1733 38.6001 12.36 38.8268 12.36 39.2801C12.36 39.4401 12.2933 39.6001 12.16 39.7601C12.0533 39.9201 11.9067 40.0001 11.72 40.0001C10.8933 40.0001 10.04 39.9868 9.16 39.9601C8.30667 39.9068 7.45333 39.8801 6.6 39.8801C5.58667 39.8801 4.56 39.9068 3.52 39.9601C2.48 39.9868 1.45333 40.0268 0.44 40.0801C0.253333 40.0001 0.133333 39.9468 0.08 39.9201C0.0266666 39.8668 0 39.7068 0 39.4401C0 39.2534 0.04 39.0934 0.12 38.9601C0.226667 38.8268 0.386667 38.7601 0.6 38.7601C0.84 38.7601 1.08 38.7734 1.32 38.8001C1.58667 38.8001 1.84 38.8001 2.08 38.8001C2.24 38.8001 2.4 38.8001 2.56 38.8001C2.72 38.7734 2.88 38.7468 3.04 38.7201C3.25333 38.6401 3.4 38.5334 3.48 38.4001C3.56 38.2401 3.61333 38.0534 3.64 37.8401C3.66667 37.4668 3.66667 37.0934 3.64 36.7201C3.64 36.3468 3.64 35.9868 3.64 35.6401C3.66667 34.8668 3.68 34.0934 3.68 33.3201C3.68 32.5468 3.68 31.7734 3.68 31.0001C3.68 27.9601 3.66667 24.9201 3.64 21.8801C3.64 18.8401 3.64 15.8001 3.64 12.7601C3.64 12.3068 3.44 12.0401 3.04 11.9601C2.66667 11.8534 2.30667 11.8001 1.96 11.8001C1.72 11.8001 1.48 11.8134 1.24 11.8401C1 11.8668 0.76 11.8801 0.52 11.8801C0.173333 11.8801 0 11.6934 0 11.3201C0 11.1068 0.0266666 10.9334 0.08 10.8001C0.133333 10.6668 0.293333 10.6001 0.56 10.6001C1.44 10.6001 2.32 10.6268 3.2 10.6801C4.08 10.7334 4.96 10.7601 5.84 10.7601C7.22667 10.7601 8.6 10.7334 9.96 10.6801C11.3467 10.6268 12.72 10.6001 14.08 10.6001C15.2267 10.6001 16.36 10.7201 17.48 10.9601C18.6267 11.2001 19.6667 11.6001 20.6 12.1601C21.5333 12.7201 22.28 13.4668 22.84 14.4001C23.4 15.3068 23.68 16.4268 23.68 17.7601Z" fill="#0F172A"/>
<path d="M60.0867 0L60.5399 2.75156C60.9453 5.21255 62.8741 7.14141 65.3351 7.54678L68.0867 8L65.3351 8.45322C62.8741 8.85859 60.9453 10.7874 60.5399 13.2484L60.0867 16L59.6334 13.2484C59.2281 10.7874 57.2992 8.85859 54.8382 8.45322L52.0867 8L54.8382 7.54678C57.2992 7.14141 59.2281 5.21255 59.6334 2.75156L60.0867 0Z" fill="#0F172A"/>
</svg>
